# xmcd CD database file
#
# Track frame offsets:
#	150
#	16985
#	32740
#	57275
#	74755
#	100020
#	120330
#	137552
#	148547
#	166100
#	190712
#
# Disc length: 2734 seconds
#
# Revision: 2
# Processed by: cddbd v1.5.2PL0 Copyright (c) Steve Scherf et al.
# Submitted via: CDex 1.51
#
DISCID=8e0aac0b
DTITLE=Romeo's Daughter - Delectable
DYEAR=1993
DGENRE=Rock
TTITLE0=Have Money
TTITLE1=Attracted To The Animal
TTITLE2=Nobody Like You
TTITLE3=Nothing But Love
TTITLE4=God Only Knows
TTITLE5=Ready Or Not
TTITLE6=Treat Me Like A Lady
TTITLE7=Sugar Daddy
TTITLE8=Dream In Colour
TTITLE9=Dancing Slow
TTITLE10=Talk Dirty To Me
EXTD=YEAR: 1993
EXTT0=
EXTT1=
EXTT2=
EXTT3=
EXTT4=
EXTT5=
EXTT6=
EXTT7=
EXTT8=
EXTT9=
EXTT10=
PLAYORDER=
